<?xml version="1.0" encoding="UTF-8" standalone="no"?>
<!-- Created with Inkscape (http://www.inkscape.org/) -->

<svg
   width="23.165737mm"
   height="21.499699mm"
   viewBox="0 0 23.165737 21.499699"
   version="1.1"
   id="svg1"
   xml:space="preserve"
   xmlns:inkscape="http://www.inkscape.org/namespaces/inkscape"
   xmlns:sodipodi="http://sodipodi.sourceforge.net/DTD/sodipodi-0.dtd"
   xmlns="http://www.w3.org/2000/svg"
   xmlns:svg="http://www.w3.org/2000/svg"><sodipodi:namedview
     id="namedview1"
     pagecolor="#ffffff"
     bordercolor="#666666"
     borderopacity="1.0"
     inkscape:showpageshadow="2"
     inkscape:pageopacity="0.0"
     inkscape:pagecheckerboard="0"
     inkscape:deskcolor="#d1d1d1"
     inkscape:document-units="mm"
     showgrid="false" /><defs
     id="defs1" /><g
     inkscape:label="Layer 1"
     inkscape:groupmode="layer"
     id="layer1"
     transform="translate(167.84311,-79.656828)"><path
       style="fill:#000000"
       d="m -167.83092,101.14932 c -0.007,-0.007 -0.0122,-4.8453 -0.0122,-10.752368 V 79.656828 h 0.82314 0.82315 l 1.3e-4,1.006887 1.2e-4,1.006887 0.2258,0.115925 c 1.09471,0.562032 2.07506,1.60396 2.93706,3.12154 0.74971,1.319887 1.40321,2.86269 2.38311,5.626076 1.24553,3.512456 1.52372,4.251008 2.04306,5.423959 0.5972,1.348808 1.12215,2.199072 1.74413,2.824948 0.52769,0.531003 0.82152,0.684835 1.35733,0.710619 0.47253,0.02274 0.79767,-0.101675 1.18421,-0.453135 0.7808,-0.709931 1.4573,-2.133159 2.19179,-4.611136 0.24368,-0.822116 0.34133,-1.177942 0.82693,-3.01331 0.61226,-2.314087 0.84868,-3.137841 1.20604,-4.202171 1.00602,-2.996206 2.14228,-4.703983 3.63361,-5.461236 0.50618,-0.257025 1.12127,-0.420158 1.58419,-0.420158 h 0.20194 v 0.823148 0.823148 l -0.15434,5.11e-4 c -0.21175,7e-4 -0.50812,0.06733 -0.74825,0.168225 -0.55228,0.232044 -1.12993,0.798594 -1.64138,1.609852 -0.23347,0.370316 -0.67818,1.288523 -0.91126,1.881482 -0.43818,1.114767 -0.87722,2.559125 -1.5281,5.027083 -0.72939,2.765668 -0.95293,3.547516 -1.32385,4.630209 -0.33001,0.963255 -0.77272,1.970549 -1.13977,2.593299 -0.74594,1.26558 -1.67211,2.01315 -2.74461,2.21539 -0.34628,0.0653 -1.01208,0.0447 -1.33662,-0.0414 -1.18877,-0.31522 -2.17218,-1.211513 -3.10511,-2.830071 -0.68602,-1.190169 -1.29471,-2.639009 -2.28982,-5.450327 -0.97547,-2.755835 -1.25914,-3.524023 -1.67183,-4.527315 -0.7336,-1.783477 -1.38061,-2.980549 -2.08151,-3.851158 -0.20469,-0.254253 -0.76142,-0.808449 -0.81215,-0.808449 -0.0217,0 -0.0289,0.901102 -0.0236,2.991262 l 0.007,2.991262 0.8282,0.0078 0.82821,0.0078 0.13385,0.344974 c 0.0736,0.189736 0.21198,0.556641 0.30749,0.815345 l 0.17364,0.47037 -1.14321,0.0077 -1.14321,0.0077 5e-4,4.954199 5.1e-4,4.954198 -0.81124,0.006 c -0.44618,0.004 -0.81675,8.9e-4 -0.82349,-0.006 z m 9.1701,-9.961068 c -0.008,-0.02829 -0.13677,-0.395405 -0.2871,-0.815798 l -0.27332,-0.764352 1.67156,-0.0076 c 0.91936,-0.0042 2.42377,-0.0042 3.34313,0 l 1.67156,0.0076 -0.2159,0.808449 c -0.11874,0.444647 -0.2161,0.811756 -0.21635,0.815798 -2.6e-4,0.004 -1.27831,0.0074 -2.84013,0.0074 -2.67961,0 -2.84045,-0.0029 -2.85345,-0.05145 z m 10.83814,0.0294 c 3.4e-4,-0.02149 0.15497,-0.582058 0.35277,-1.278819 l 0.0981,-0.345428 h 1.34722 1.34722 v 0.823148 0.823148 h -1.5728 c -0.86504,0 -1.57265,-0.0099 -1.57246,-0.02205 z"
       id="path1" /></g></svg>
