<?xml version="1.0" encoding="UTF-8" standalone="no"?>
<!-- Created with Inkscape (http://www.inkscape.org/) -->

<svg
   width="26.409613mm"
   height="26.411341mm"
   viewBox="0 0 26.409613 26.411341"
   version="1.1"
   id="svg1"
   xml:space="preserve"
   xmlns:inkscape="http://www.inkscape.org/namespaces/inkscape"
   xmlns:sodipodi="http://sodipodi.sourceforge.net/DTD/sodipodi-0.dtd"
   xmlns="http://www.w3.org/2000/svg"
   xmlns:svg="http://www.w3.org/2000/svg"><sodipodi:namedview
     id="namedview1"
     pagecolor="#ffffff"
     bordercolor="#666666"
     borderopacity="1.0"
     inkscape:showpageshadow="2"
     inkscape:pageopacity="0.0"
     inkscape:pagecheckerboard="0"
     inkscape:deskcolor="#d1d1d1"
     inkscape:document-units="mm"
     showgrid="false" /><defs
     id="defs1" /><g
     inkscape:label="Layer 1"
     inkscape:groupmode="layer"
     id="layer1"
     transform="translate(181.03157,-37.631266)"><path
       style="fill:#000000"
       d="m -169.03199,64.011093 c -2.54736,-0.266087 -4.79039,-1.138511 -6.78867,-2.640451 -0.61488,-0.462158 -1.65225,-1.458804 -2.19756,-2.111311 -1.49996,-1.794788 -2.51533,-4.071752 -2.89203,-6.485392 -0.16177,-1.036542 -0.16177,-2.83919 0,-3.875732 0.35069,-2.246935 1.19665,-4.25688 2.54891,-6.05602 0.46216,-0.614884 1.4588,-1.652249 2.11131,-2.197569 1.79479,-1.499959 4.07175,-2.515322 6.48539,-2.892021 1.03655,-0.161774 2.83919,-0.161774 3.87574,0 1.44273,0.225169 2.63095,0.599687 3.90157,1.229743 1.46125,0.724585 2.53396,1.512907 3.69822,2.717785 1.91586,1.982689 3.11026,4.407355 3.54582,7.198082 0.16177,1.036542 0.16177,2.83919 0,3.875732 -0.22517,1.442732 -0.59969,2.630956 -1.22975,3.901571 -1.73281,3.494504 -4.85861,6.028389 -8.61294,6.981954 -0.96404,0.24486 -1.85312,0.35846 -2.98241,0.381073 -0.55423,0.0111 -1.21285,-0.0013 -1.4636,-0.02744 z m 2.32021,-1.551077 c 2.14065,-0.208306 4.18263,-1.01032 5.96468,-2.342708 0.63,-0.47103 1.73053,-1.571566 2.20157,-2.201564 2.35657,-3.151883 3.01038,-7.050952 1.80088,-10.739731 -0.83773,-2.554939 -2.61857,-4.816041 -4.93262,-6.26286 -4.07807,-2.549738 -9.29942,-2.296475 -13.22917,0.641684 -0.63,0.471031 -1.73054,1.571566 -2.20157,2.201564 -3.1969,4.275814 -3.1969,9.883529 0,14.159343 0.47103,0.629998 1.57157,1.730534 2.20157,2.201564 1.44604,1.081164 3.08324,1.823853 4.76774,2.162804 1.11844,0.225052 2.31657,0.287951 3.42692,0.179904 z m -6.24699,-2.6138 c -0.2277,-0.441853 -1.84618,-3.857732 -1.8335,-3.869676 0.0213,-0.02003 4.40409,-0.172835 4.42353,-0.154222 0.009,0.0084 -0.17141,0.32034 -0.40049,0.693127 -0.22908,0.372788 -0.41651,0.690528 -0.41651,0.706091 0,0.04917 0.74488,0.370093 1.17271,0.505243 2.23962,0.707494 4.66643,0.281909 6.58459,-1.154726 0.45313,-0.33938 1.22252,-1.145788 1.51995,-1.593085 0.13551,-0.203784 0.26151,-0.370516 0.28,-0.370516 0.0282,0 0.76236,0.438348 1.18101,0.705108 l 0.11874,0.07567 -0.11557,0.190973 c -0.752,1.242589 -2.11392,2.451385 -3.53257,3.135405 -2.41852,1.166123 -5.02178,1.199154 -7.50821,0.09527 -0.29254,-0.129878 -0.53877,-0.227446 -0.54718,-0.216818 -0.008,0.01063 -0.17412,0.28675 -0.36824,0.613603 -0.51503,0.867189 -0.4681,0.813518 -0.55826,0.638561 z m -2.71645,-5.070118 c -1.04464,-2.069425 -1.20574,-4.573717 -0.43766,-6.803322 0.60182,-1.746944 1.83374,-3.371132 3.30696,-4.359954 l 0.32941,-0.221094 -0.0857,-0.166479 c -0.0471,-0.09156 -0.23296,-0.429891 -0.41291,-0.751837 l -0.32717,-0.585358 0.3219,0.03108 c 0.3829,0.03697 3.89012,0.286972 4.0259,0.286972 0.0518,0 0.0942,0.02093 0.0942,0.04651 0,0.03658 -1.99315,3.870353 -2.03754,3.919159 -0.006,0.0068 -0.19168,-0.313128 -0.41215,-0.711024 -0.26137,-0.471719 -0.42188,-0.710965 -0.46128,-0.687575 -0.23857,0.141631 -0.69191,0.509271 -1.03567,0.839891 -2.27673,2.189685 -2.87957,5.443838 -1.54442,8.336822 0.10174,0.220445 0.17544,0.409186 0.16377,0.419425 -0.07,0.0614 -1.24404,0.704222 -1.2862,0.704222 -0.0282,0 -0.11885,-0.133849 -0.20143,-0.297442 z m 14.63135,-2.481926 -1.20112,-1.845672 0.82388,-0.01419 0.82387,-0.01419 -0.0285,-0.270034 c -0.18082,-1.713726 -0.88306,-3.18215 -2.1078,-4.407566 -1.28538,-1.286076 -2.80485,-1.983232 -4.62138,-2.120362 l -0.47186,-0.03562 V 42.812694 42.03885 l 0.45217,0.03405 c 1.25763,0.0947 2.19208,0.327169 3.24269,0.806716 1.94293,0.886831 3.63183,2.653162 4.42066,4.623325 0.31041,0.77526 0.61627,2.025573 0.6185,2.528332 0.002,0.40194 -0.0303,0.38728 0.88313,0.403053 l 0.82076,0.01417 -1.20111,1.845672 c -0.66061,1.01512 -1.21274,1.845672 -1.22695,1.845672 -0.0142,0 -0.56634,-0.830552 -1.22695,-1.845672 z"
       id="path1" /></g></svg>
