<?xml version="1.0" encoding="UTF-8" standalone="no"?>
<!-- Created with Inkscape (http://www.inkscape.org/) -->

<svg
   width="26.458309mm"
   height="22.22496mm"
   viewBox="0 0 26.458309 22.22496"
   version="1.1"
   id="svg1"
   xml:space="preserve"
   xmlns:inkscape="http://www.inkscape.org/namespaces/inkscape"
   xmlns:sodipodi="http://sodipodi.sourceforge.net/DTD/sodipodi-0.dtd"
   xmlns="http://www.w3.org/2000/svg"
   xmlns:svg="http://www.w3.org/2000/svg"><sodipodi:namedview
     id="namedview1"
     pagecolor="#ffffff"
     bordercolor="#666666"
     borderopacity="1.0"
     inkscape:showpageshadow="2"
     inkscape:pageopacity="0.0"
     inkscape:pagecheckerboard="0"
     inkscape:deskcolor="#d1d1d1"
     inkscape:document-units="mm"
     showgrid="false" /><defs
     id="defs1" /><g
     inkscape:label="Layer 1"
     inkscape:groupmode="layer"
     id="layer1"
     transform="translate(113.92747,-98.200154)"><path
       style="fill:#000000"
       d="M -113.92722,109.31266 V 98.200155 h 0.52917 0.52916 l 0.007,4.262735 0.007,4.26273 0.23419,-0.88194 c 0.8995,-3.38739 2.33108,-6.215878 3.56251,-7.038711 2.14564,-1.433704 4.29563,-0.222282 6.23106,3.510931 0.81884,1.57943 1.41667,3.08152 2.48611,6.24645 2.136699,6.32344 4.070869,9.74614 5.507559,9.74614 0.9888,0 2.15555,-1.56325 3.32027,-4.44861 0.37002,-0.91666 1.22181,-3.64336 1.22181,-3.9112 0,-0.0621 -1.78911,-0.10686 -4.27351,-0.10686 h -4.27352 l -0.13621,-0.45461 c -0.0749,-0.25004 -0.1362,-0.48816 -0.1362,-0.52917 0,-0.041 2.61937,-0.0746 5.82083,-0.0746 h 5.82083 v 0.52917 c 0,0.50503 -0.0155,0.52916 -0.33969,0.52916 -0.29832,0 -0.34958,0.0527 -0.42092,0.43302 -0.15985,0.85208 -0.90103,3.24617 -1.3696,4.424 -1.87177,4.70494 -4.03565,6.48144 -6.54353,5.37208 -1.12732,-0.49867 -2.08282,-1.53611 -3.18404,-3.45708 -0.844509,-1.47317 -1.583059,-3.28103 -2.838569,-6.94841 -0.59782,-1.74625 -1.37819,-3.83645 -1.73415,-4.6449 -1.24312,-2.82334 -2.57339,-4.70371 -3.32766,-4.70371 -0.73673,0 -1.6846,1.24704 -2.46497,3.24296 -0.50158,1.28288 -1.21996,3.75854 -1.35826,4.68075 l -0.0814,0.54296 h 3.80664 3.80664 l 0.19029,0.52917 0.19028,0.52916 h -4.86552 -4.86552 v 5.29167 5.29167 h -0.52916 -0.52917 z"
       id="path1" /></g></svg>
